<!DOCTYPE svg PUBLIC "-//W3C//DTD SVG 1.1//EN" "http://www.w3.org/Graphics/SVG/1.1/DTD/svg11.dtd">
<!-- Uploaded to: SVG Repo, www.svgrepo.com, Transformed by: SVG Repo Mixer Tools -->
<svg fill="#133072" width="800px" height="800px" viewBox="0 0 256 256" id="Flat" xmlns="http://www.w3.org/2000/svg">
<g id="SVGRepo_bgCarrier" stroke-width="0"/>
<g id="SVGRepo_tracerCarrier" stroke-linecap="round" stroke-linejoin="round"/>
<g id="SVGRepo_iconCarrier"> <path d="M232,128a104.13983,104.13983,0,0,1-96,103.69531V152.00094h24a8,8,0,0,0,0-16H136v-24a16.01833,16.01833,0,0,1,16-16h16a8,8,0,0,0,0-16H152a32.03667,32.03667,0,0,0-32,32v24H96a8,8,0,0,0,0,16h24v79.69434A104.00166,104.00166,0,1,1,232,128Z"/> </g>
</svg>